<?xml version="1.0" standalone="no"?> <!DOCTYPE svg PUBLIC "-//W3C//DTD SVG 20010904//EN" "http://www.w3.org/TR/2001/REC-SVG-20010904/DTD/svg10.dtd"> <svg version="1.0" xmlns="http://www.w3.org/2000/svg" width="443.000000pt" height="361.000000pt" viewBox="0 0 443.000000 361.000000" preserveAspectRatio="xMidYMid meet"> <g transform="translate(0.000000,361.000000) scale(0.100000,-0.100000)" fill="#3c1f0f" stroke="none"> <path d="M2525 3100 c-138 -7 -186 -21 -261 -71 -58 -40 -118 -109 -105 -122 7 -7 21 0 46 22 46 40 131 83 156 79 16 -2 8 -12 -35 -43 -76 -55 -75 -75 2 -36 42 21 112 37 112 26 0 -31 -250 -432 -311 -500 -102 -111 -260 -149 -404 -98 -69 25 -219 34 -344 22 -129 -12 -221 -37 -298 -80 -61 -34 -73 -36 -49 -10 16 17 16 22 3 48 -8 15 -18 50 -22 76 -7 46 -18 60 -28 35 -3 -7 -6 6 -6 30 -1 23 -5 42 -10 42 -18 0 -81 -84 -87 -116 -8 -41 9 -91 47 -144 34 -47 34 -46 -7 -160 -35 -98 -43 -230 -20 -351 21 -115 20 -149 -8 -217 -23 -57 -32 -143 -41 -417 -3 -97 -13 -142 -30 -149 -8 -3 -33 -17 -56 -32 -35 -22 -40 -28 -26 -36 13 -7 2795 -16 2925 -9 42 2 26 35 -31 64 -67 34 -87 34 -126 1 -20 -17 -40 -24 -58 -22 l-28 3 23 22 c12 13 18 23 14 23 -4 0 -14 -6 -20 -12 -10 -10 -14 -8 -18 9 -5 18 -10 20 -34 13 -24 -7 -27 -5 -23 11 6 23 0 24 -22 3 -13 -13 -21 -14 -40 -6 -27 12 -35 7 -35 -22 -1 -20 -2 -20 -14 -3 -7 9 -21 17 -30 17 -9 0 -16 6 -16 13 0 6 -7 3 -16 -8 -14 -18 -16 -18 -42 -3 -49 29 -52 44 -52 315 l0 251 39 74 c22 41 45 101 51 133 7 33 15 182 17 330 l5 271 -36 28 c-43 33 -82 89 -91 131 -5 22 3 14 27 -30 23 -41 51 -73 91 -103 40 -31 60 -53 64 -73 7 -38 23 -47 40 -23 11 14 14 38 10 90 -5 87 -46 181 -107 248 -24 25 -38 46 -33 46 21 0 79 -75 117 -152 l41 -82 80 -2 c73 -2 81 0 102 23 22 23 23 29 14 79 -10 55 -29 98 -63 146 -18 26 -143 117 -178 130 -8 3 -69 2 -135 -2 -85 -5 -100 -7 -53 -8 37 -1 69 -6 72 -11 10 -16 -23 -33 -61 -31 -61 4 -63 3 -63 -41 0 -31 -14 -65 -61 -147 -139 -244 -245 -381 -312 -405 -7 -2 -9 -8 -5 -12 5 -5 24 0 44 11 33 17 57 41 149 149 24 29 25 29 40 11 9 -12 15 -41 15 -72 0 -65 10 -92 50 -138 24 -27 40 -36 64 -36 36 0 51 -13 110 -102 l38 -58 -10 -87 c-16 -131 -59 -214 -142 -273 -42 -30 -44 -10 -4 54 20 31 35 58 33 60 -2 2 -18 -1 -35 -5 -34 -10 -76 -53 -131 -139 -33 -52 -35 -60 -38 -151 -1 -52 -8 -105 -14 -117 -6 -11 -9 -45 -6 -79 15 -188 15 -203 3 -203 -7 0 -21 7 -32 15 -16 12 -19 30 -21 142 -1 70 -7 148 -13 173 -6 25 -11 82 -12 127 0 73 -3 85 -26 113 -25 30 -72 60 -93 60 -6 0 -8 -19 -4 -50 l6 -50 -47 0 c-45 0 -46 -1 -47 -32 -1 -36 1 -61 7 -67 2 -2 38 5 80 15 56 13 78 22 82 36 10 39 21 15 27 -59 3 -43 11 -99 16 -125 12 -51 16 -158 10 -228 -2 -25 0 -54 4 -65 8 -19 7 -19 -11 -3 -16 14 -21 14 -32 2 -7 -8 -10 -20 -6 -27 4 -6 -3 -3 -15 8 l-22 19 11 -28 c15 -41 6 -42 -19 -4 l-21 33 6 -32 c6 -29 4 -33 -15 -33 -18 0 -21 4 -16 20 5 15 3 18 -8 14 -8 -3 -17 2 -21 11 -8 22 -27 9 -19 -13 3 -9 -5 -3 -18 13 -13 17 -29 36 -36 43 -25 26 -28 69 -28 362 l0 296 43 70 c64 106 81 238 78 607 l-2 227 -43 36 c-46 40 -101 127 -100 159 0 12 10 -1 26 -33 18 -36 51 -76 104 -124 59 -54 80 -80 85 -105 3 -18 9 -33 13 -33 19 1 34 23 41 61 18 94 -40 256 -122 345 -23 24 -39 47 -36 49 13 14 103 -104 139 -181 l39 -84 91 0 c87 0 92 1 120 30 25 24 28 33 19 49 -5 11 -10 29 -10 40 0 14 -10 24 -32 31 l-33 10 33 -5 c17 -2 32 -2 32 1 0 3 -12 29 -26 58 -29 58 -85 120 -129 143 -16 9 -46 29 -66 45 -44 35 -69 38 -244 28z m65 -29 c0 -5 -13 -14 -30 -21 -24 -10 -36 -10 -59 0 -17 6 -35 9 -41 5 -6 -4 -17 -1 -25 5 -11 9 -15 9 -15 1 0 -6 -9 -11 -20 -11 -11 0 -45 -11 -77 -25 -51 -23 -56 -24 -38 -6 39 39 113 60 213 60 50 1 92 -3 92 -8z m202 -43 c41 -22 76 -51 109 -92 54 -67 59 -82 29 -91 -28 -9 -25 -33 5 -47 14 -6 25 -15 25 -20 0 -17 -31 -20 -55 -4 -13 9 -32 13 -41 9 -12 -4 -15 -3 -10 6 4 6 3 18 -3 25 -7 8 -10 20 -9 27 2 8 -7 15 -19 17 -13 2 -23 9 -23 17 0 7 -10 15 -22 18 -12 4 -19 9 -16 13 4 3 21 2 37 -4 41 -15 39 -4 -9 43 -26 25 -36 41 -28 46 7 5 2 16 -16 33 -46 47 -35 47 46 4z m-111 -4 c17 -8 29 -18 26 -21 -7 -7 -77 19 -77 29 0 12 18 10 51 -8z m-25 -34 c14 0 22 -4 19 -10 -10 -16 -51 -12 -66 7 -12 15 -12 16 4 10 10 -4 30 -7 43 -7z m49 -51 c-8 -12 -62 -12 -70 0 -3 5 9 11 27 13 38 4 51 0 43 -13z m-205 -62 c6 -29 24 -82 41 -117 34 -72 32 -90 -4 -32 -29 44 -57 132 -57 174 0 43 7 34 20 -25z m155 -67 c41 -64 75 -138 75 -163 0 -6 -22 29 -48 78 -26 50 -64 111 -84 136 -21 26 -38 50 -38 54 0 18 55 -43 95 -105z m118 -30 c6 -45 6 -45 -8 -15 -16 33 -20 85 -6 70 5 -6 11 -30 14 -55z m586 -25 c36 -21 73 -54 95 -84 42 -56 44 -67 15 -74 -17 -5 -19 -9 -9 -26 6 -12 17 -21 25 -21 8 0 15 -5 15 -11 0 -7 -10 -9 -27 -5 -16 4 -36 8 -45 9 -9 1 -16 4 -16 7 3 15 -15 60 -24 60 -5 0 -22 10 -36 21 l-27 22 33 -6 33 -7 -27 35 c-14 19 -31 35 -36 35 -5 0 -7 9 -3 20 4 13 0 23 -14 32 -19 11 -28 28 -17 28 3 0 32 -16 65 -35z m-549 -15 c12 -23 12 -24 -3 -11 -10 7 -17 20 -17 29 0 18 3 16 20 -18z m445 18 c37 -17 31 -28 -10 -16 -19 6 -32 15 -29 20 7 10 8 10 39 -4z m-289 -18 c8 0 14 -4 14 -10 0 -14 -30 -12 -65 6 l-30 14 34 -5 c18 -3 40 -5 47 -5z m272 -13 c6 3 12 0 12 -5 0 -6 -6 -12 -12 -15 -16 -5 -48 10 -48 24 0 6 6 6 18 1 9 -5 23 -7 30 -5z m-288 -17 c11 -8 5 -10 -23 -8 -21 1 -41 6 -43 10 -7 12 48 10 66 -2z m314 -32 c-15 -7 -28 -7 -40 1 -16 9 -12 10 21 10 35 0 37 -2 19 -11z m-165 -50 c6 -29 22 -77 36 -105 13 -29 20 -53 14 -53 -16 0 -62 110 -67 162 -6 64 4 61 17 -4z m103 -15 c51 -70 65 -93 82 -141 22 -60 11 -52 -25 21 -17 34 -49 83 -70 109 -21 26 -39 49 -39 52 0 17 20 1 52 -41z m137 -83 c1 -13 0 -13 -9 0 -5 8 -9 26 -9 40 l1 25 8 -25 c4 -14 8 -32 9 -40z m-1055 4 c3 -9 6 -41 6 -73 0 -101 66 -201 132 -201 43 0 64 -15 95 -68 15 -26 38 -60 51 -76 22 -27 23 -36 18 -95 -15 -154 -56 -253 -132 -320 -74 -65 -85 -53 -29 35 42 66 44 76 8 68 -45 -11 -89 -41 -115 -81 -13 -21 -41 -63 -61 -94 -37 -55 -37 -56 -37 -163 0 -82 -4 -113 -16 -132 -12 -17 -15 -35 -10 -62 4 -20 8 -75 10 -122 1 -47 6 -95 11 -108 7 -20 4 -22 -23 -22 -17 0 -34 5 -38 12 -4 6 -7 69 -5 139 1 92 -2 143 -13 180 -9 28 -19 105 -22 171 -8 134 -17 154 -85 188 -55 29 -73 27 -65 -7 21 -83 22 -80 -27 -87 -57 -9 -277 10 -338 28 -87 26 -265 132 -314 186 -10 11 -22 20 -27 20 -14 0 -9 -59 8 -91 8 -17 14 -34 12 -39 -2 -4 -42 -42 -89 -83 -107 -94 -159 -170 -200 -295 -27 -81 -33 -117 -37 -219 -5 -129 -10 -141 -55 -127 -19 6 -19 12 -12 138 4 72 9 178 10 236 1 99 3 108 33 155 l32 51 -17 167 c-26 251 -3 361 98 466 115 119 387 163 660 105 107 -22 129 -24 190 -15 143 23 221 70 315 192 46 60 67 72 78 43z m1221 -34 c13 -5 14 -9 5 -9 -8 0 -24 4 -35 9 -13 5 -14 9 -5 9 8 0 24 -4 35 -9z m-2520 -166 c19 -46 5 -94 -22 -73 -22 18 -53 88 -53 119 0 14 10 41 22 60 l22 35 8 -53 c4 -29 14 -68 23 -88z m1363 -654 l-32 -60 28 -127 c15 -71 34 -148 42 -173 11 -32 15 -86 14 -195 -1 -82 2 -160 6 -172 5 -17 2 -23 -10 -23 -22 0 -32 28 -17 51 6 11 7 19 2 19 -5 0 -11 -6 -14 -12 -3 -10 -9 -8 -24 5 -18 16 -22 16 -33 2 -15 -18 -30 -20 -30 -4 0 6 -11 24 -24 40 -37 43 -43 121 -18 203 18 56 20 82 15 193 l-5 128 28 37 c16 20 44 62 62 93 44 73 51 70 10 -5z m-1049 -14 c-13 -19 -53 -60 -89 -92 -77 -68 -120 -120 -120 -144 0 -10 9 -29 21 -44 14 -18 29 -66 44 -144 33 -174 38 -244 20 -267 -15 -20 -16 -20 -13 0 4 35 -10 47 -37 29 -16 -10 -25 -12 -30 -4 -3 6 -11 8 -16 5 -5 -4 -9 0 -9 7 0 10 -3 9 -10 -2 -6 -9 -5 -17 3 -23 7 -4 -1 -5 -18 -1 -16 4 -33 12 -37 18 -5 7 -8 6 -8 -4 0 -13 -1 -13 -10 0 -15 23 -12 157 5 225 8 33 30 101 48 150 33 88 37 93 153 210 65 66 121 119 123 118 2 -2 -7 -18 -20 -37z m759 -9 c19 -20 24 -42 32 -138 6 -63 18 -152 26 -199 12 -62 15 -111 10 -183 -4 -64 -2 -105 5 -118 14 -27 4 -36 -18 -18 -16 13 -16 13 0 -11 25 -36 22 -62 -5 -58 -18 2 -23 9 -23 31 1 15 -2 27 -6 27 -17 0 -39 86 -39 150 0 39 -3 70 -6 70 -3 0 -14 -5 -24 -10 -11 -6 -21 -6 -24 -1 -3 5 0 11 8 14 7 3 16 21 20 41 7 35 37 63 56 51 6 -3 10 1 10 9 0 9 -7 16 -16 16 -10 0 -12 4 -7 13 9 15 4 129 -7 141 -4 4 -33 1 -63 -8 -44 -13 -61 -24 -91 -62 -20 -26 -36 -50 -36 -54 0 -3 11 -21 25 -40 14 -19 25 -45 25 -59 1 -14 7 -53 15 -86 20 -80 19 -145 -1 -174 l-17 -24 -19 24 -20 24 5 -26 c3 -21 0 -25 -15 -21 -10 2 -18 8 -18 12 0 4 -6 10 -14 13 -9 4 -12 0 -9 -13 7 -27 -14 -33 -31 -8 -47 67 15 352 96 444 33 37 32 39 -6 25 -56 -22 -124 -200 -133 -353 -7 -116 -15 -133 -44 -98 -20 23 -21 32 -14 140 4 63 6 145 5 182 -1 37 4 76 10 87 9 17 8 21 -4 21 -9 0 -18 -10 -20 -22 -7 -36 -19 -256 -17 -330 1 -70 -9 -89 -36 -66 -9 7 -14 8 -10 2 4 -7 0 -17 -9 -25 -13 -10 -16 -9 -21 9 l-5 22 -25 -20 c-29 -22 -43 -25 -43 -9 0 5 4 7 10 4 6 -4 7 1 3 11 -6 16 -8 15 -21 -4 -14 -22 -16 -22 -35 -5 -19 18 -20 17 -8 -4 11 -23 15 -51 5 -40 -3 3 -5 8 -4 12 2 8 -40 45 -50 45 -13 0 -20 -28 -8 -32 6 -2 9 -11 6 -19 -4 -10 -9 -6 -18 13 -7 14 -22 29 -35 32 -13 3 -28 21 -38 43 -21 48 -25 72 -26 157 -1 68 -1 69 -21 51 -13 -11 -25 -15 -37 -10 -17 8 -17 8 -1 12 10 3 20 17 23 31 17 84 57 103 99 47 15 -19 31 -35 36 -35 5 0 10 26 12 57 l3 58 63 22 c45 16 103 26 200 32 127 9 291 36 370 62 29 9 32 14 32 49 0 27 -8 48 -26 69 -30 36 -18 42 14 8z m417 -17 c-8 -13 -80 -50 -97 -50 -7 0 10 14 37 30 52 31 71 37 60 20z m-1015 -40 c54 -20 111 -33 164 -37 125 -9 138 -24 16 -19 -111 4 -213 30 -260 66 -35 27 -17 25 80 -10z m1499 -32 c-24 -47 -21 -75 27 -256 30 -115 35 -306 9 -316 -9 -3 -20 -16 -25 -28 -5 -13 -9 -17 -9 -10 -1 7 4 23 10 35 12 22 11 22 -9 4 -19 -18 -20 -18 -37 5 -10 13 -15 16 -12 6 10 -28 -4 -28 -29 1 -20 24 -24 40 -24 96 0 36 5 76 12 88 8 15 11 66 10 153 -2 107 0 133 13 144 8 7 29 37 46 66 36 64 49 72 18 12z m-234 -29 c11 -32 2 -30 -22 7 -20 31 -20 33 -3 24 10 -5 22 -19 25 -31z m-1317 -31 c4 -43 -32 -91 -81 -107 l-32 -11 27 23 c22 18 58 81 58 102 0 3 0 12 0 21 0 31 25 7 28 -28z m1672 37 c0 -6 -76 -45 -87 -45 -10 0 69 49 80 50 4 0 7 -2 7 -5z m-1594 -19 c3 -8 -1 -27 -10 -43 l-15 -28 -1 43 c0 41 15 57 26 28z m984 -92 c14 -35 12 -141 -2 -180 -10 -28 -9 -36 4 -51 12 -13 15 -29 11 -59 -4 -36 3 -80 21 -124 5 -11 -2 -16 -29 -18 -22 -1 -37 3 -40 10 -2 7 -6 76 -8 153 -3 90 -11 163 -22 203 -14 50 -15 65 -5 77 20 25 59 19 70 -11z m-1276 -50 c22 -5 36 -36 36 -81 0 -24 -18 -5 -25 27 -4 17 -11 30 -16 30 -19 0 -59 49 -59 72 0 21 2 20 20 -9 11 -18 30 -35 44 -39z m1880 -20 c9 -22 6 -135 -3 -159 -5 -11 -4 -29 2 -40 6 -11 11 -49 12 -83 1 -42 7 -67 16 -72 7 -5 10 -13 5 -17 -5 -4 -11 -2 -13 4 -3 8 -14 11 -27 7 -30 -7 -33 5 -35 146 -1 69 -8 130 -17 157 -12 35 -13 48 -3 59 15 19 55 18 63 -2z m-1156 -14 c7 -12 23 -25 36 -30 17 -6 25 -18 28 -44 5 -41 -8 -49 -18 -11 -3 14 -15 30 -25 36 -10 5 -26 23 -34 39 -17 34 -7 41 13 10z m-621 -322 c3 -18 2 -30 -2 -26 -5 4 -14 3 -21 -3 -32 -26 -74 42 -74 119 l0 31 45 -44 c29 -27 48 -56 52 -77z m723 32 c9 0 14 -14 24 -65 3 -16 3 -24 0 -18 -3 8 -15 11 -28 7 -19 -4 -26 1 -40 29 -9 19 -16 50 -16 68 l0 34 25 -28 c14 -15 30 -27 35 -27z m325 -80 c11 -18 -6 -50 -26 -50 -19 0 -24 16 -13 44 7 18 30 21 39 6z"/> <path d="M2290 1510 c0 -16 4 -30 8 -30 5 0 7 14 4 30 -2 17 -6 30 -8 30 -2 0 -4 -13 -4 -30z"/> <path d="M2290 1425 c0 -24 5 -35 15 -35 15 0 20 26 9 54 -11 28 -24 17 -24 -19z"/> <path d="M604 906 c-17 -13 -17 -15 -3 -21 9 -3 36 -5 60 -3 32 2 45 8 47 21 3 14 -4 17 -40 17 -24 0 -53 -6 -64 -14z"/> <path d="M3714 909 c-10 -17 16 -29 68 -29 52 0 69 13 39 29 -26 14 -98 14 -107 0z"/> <path d="M690 859 c-13 -6 -32 -16 -40 -24 -13 -11 -24 -12 -51 -5 -18 6 -66 10 -106 10 -62 0 -76 -3 -100 -24 l-28 -24 0 -140 c0 -136 1 -141 25 -167 25 -26 26 -27 125 -21 55 3 110 5 123 5 12 -1 87 -1 167 -1 80 -1 160 -1 178 -1 17 0 199 0 402 -1 l370 -1 33 23 32 24 37 -23 c31 -19 50 -23 108 -21 38 1 84 1 100 1 17 0 185 -2 375 -4 279 -3 350 -1 374 11 24 12 31 12 49 -1 12 -8 36 -15 55 -15 39 0 102 25 102 40 0 6 15 1 33 -12 l32 -23 380 -2 c220 -1 393 2 411 8 17 5 42 21 55 35 21 23 24 36 26 111 1 47 -3 96 -7 109 -14 35 -66 58 -130 56 -101 -3 -114 -3 -325 1 -115 2 -219 1 -230 -3 -31 -12 -127 10 -153 34 -20 18 -39 22 -117 24 -101 4 -148 -10 -160 -48 -5 -16 -11 -19 -33 -13 -15 5 -47 7 -72 6 -39 -2 -47 1 -55 20 -14 30 -61 51 -112 48 -48 -2 -76 -2 -183 3 -96 4 -135 -7 -151 -43 -12 -26 -18 -29 -63 -29 -29 0 -56 6 -63 14 -14 14 -105 44 -132 44 -41 0 -95 -24 -127 -56 l-35 -36 -36 17 c-20 10 -58 17 -87 16 -99 -1 -143 8 -154 34 -27 58 -153 54 -175 -6 -11 -28 -12 -28 -79 -24 -38 2 -82 0 -98 -5 -17 -5 -44 -4 -64 1 -22 6 -51 6 -81 -1 -62 -14 -114 -4 -125 24 -13 36 -37 48 -100 52 -33 1 -67 5 -77 8 -10 2 -29 0 -43 -5z m58 -97 c4 -28 -24 -41 -44 -20 -20 20 -7 50 20 46 13 -2 22 -12 24 -26z m1690 0 c4 -28 -24 -41 -44 -20 -20 20 -7 50 20 46 13 -2 22 -12 24 -26z m-1590 -21 l-3 -40 46 6 c62 7 89 -17 89 -82 0 -64 -25 -87 -93 -84 -29 1 -56 1 -62 -1 -32 -9 -35 1 -35 120 l0 120 31 0 c30 0 31 -1 27 -39z m623 22 c0 -10 1 -37 1 -60 0 -24 2 -43 5 -43 3 0 14 11 25 25 14 18 29 25 56 25 l36 0 -32 -33 -32 -33 30 -48 c32 -50 32 -58 0 -63 -13 -2 -27 9 -43 32 -18 26 -26 32 -35 23 -7 -7 -12 -22 -12 -35 0 -18 -5 -22 -22 -19 -22 3 -23 7 -26 124 l-3 122 26 0 c17 0 25 -6 26 -17z m879 -102 c0 -96 -3 -120 -15 -125 -39 -15 -45 1 -45 125 l0 119 30 0 30 0 0 -119z m258 97 c-2 -15 -10 -23 -23 -23 -11 0 -21 -8 -23 -18 -3 -16 2 -17 47 -11 l50 6 3 -58 c2 -49 6 -59 22 -62 28 -6 46 25 46 75 0 39 2 43 25 43 25 0 25 -1 25 -85 0 -67 -3 -87 -15 -91 -8 -4 -21 -1 -29 5 -9 8 -21 8 -40 1 -35 -13 -74 3 -81 32 -4 19 -10 58 -14 90 -1 3 -10 4 -21 1 -15 -4 -20 -14 -21 -44 -3 -89 -5 -95 -38 -84 -18 5 -21 14 -21 65 0 42 -4 59 -15 64 -8 3 -15 12 -15 21 0 8 7 15 15 15 9 0 15 9 15 22 0 35 29 58 72 58 35 0 39 -2 36 -22z m-596 2 c44 -13 52 -23 38 -49 -9 -19 -13 -19 -45 -6 -32 14 -65 12 -65 -4 0 -9 45 -31 64 -31 7 0 22 -9 34 -20 29 -27 29 -74 0 -94 -40 -28 -168 -14 -168 18 1 31 16 35 63 18 38 -14 49 -14 59 -4 11 11 9 16 -6 28 -11 8 -27 14 -37 14 -9 0 -28 9 -43 21 -41 33 -33 82 18 105 38 16 42 16 88 4z m1056 -17 c3 -22 0 -23 -52 -23 -53 0 -56 -1 -56 -25 0 -23 3 -25 51 -25 47 0 50 -2 47 -22 -3 -20 -10 -23 -50 -26 l-47 -3 -3 -42 c-3 -37 -6 -42 -28 -42 -25 0 -25 0 -28 104 -1 58 0 111 2 118 4 10 25 13 83 11 72 -3 78 -5 81 -25z m-2457 2 c67 -35 66 -156 -2 -191 -17 -8 -57 -14 -99 -14 l-70 0 0 110 0 110 70 0 c45 0 82 -6 101 -15z m139 -119 c0 -61 -4 -85 -13 -89 -26 -10 -35 9 -37 78 -3 96 -3 95 25 95 25 0 25 -1 25 -84z m392 67 c14 -13 18 -31 18 -85 0 -38 -4 -69 -10 -69 -5 -1 -16 -2 -22 -3 -7 -1 -17 0 -23 3 -5 3 -26 4 -46 2 -40 -3 -69 18 -69 49 0 30 28 50 72 50 27 0 38 4 35 13 -3 7 -19 11 -44 9 -45 -2 -66 20 -35 37 28 17 103 13 124 -6z m224 -8 c10 -16 14 -42 12 -87 -3 -60 -4 -63 -28 -63 -23 0 -25 4 -30 60 -4 53 -8 60 -28 63 -26 4 -30 -5 -34 -73 -3 -45 -5 -49 -28 -49 -24 0 -25 1 -28 86 l-3 86 76 0 c68 1 77 -2 91 -23z m398 -6 c28 -33 32 -55 15 -92 -31 -68 -151 -65 -179 4 -27 63 16 119 91 119 40 0 51 -4 73 -31z m470 12 c23 -25 20 -156 -4 -157 -8 0 -20 4 -26 8 -6 5 -23 4 -38 -2 -44 -17 -86 10 -86 55 0 26 31 45 72 45 27 0 38 4 35 13 -3 7 -19 11 -44 9 -29 -1 -43 2 -46 13 -14 36 106 50 137 16z m206 -65 c0 -83 -5 -96 -40 -96 -5 0 -10 41 -12 90 l-3 90 28 0 27 0 0 -84z m785 70 c16 -11 19 -26 18 -79 -1 -78 -6 -89 -36 -78 -12 5 -34 5 -48 1 -38 -11 -73 9 -77 43 -5 41 14 57 64 57 24 0 44 4 44 10 0 11 -35 20 -70 17 -29 -2 -41 29 -13 36 38 10 100 6 118 -7z m115 2 c0 -9 3 -9 12 0 22 22 48 14 48 -13 0 -17 -5 -25 -18 -25 -29 0 -42 -21 -42 -71 0 -30 -5 -49 -13 -52 -28 -11 -37 10 -41 91 l-3 82 28 0 c16 0 29 -5 29 -12z m130 0 c0 -9 3 -9 12 0 17 17 73 15 88 -3 11 -13 15 -13 33 0 28 20 66 19 89 -2 14 -13 18 -31 18 -85 0 -66 -1 -68 -25 -68 -24 0 -25 3 -25 55 0 42 -4 57 -16 62 -31 12 -49 -11 -52 -66 -3 -47 -5 -51 -28 -51 -22 0 -24 4 -24 44 0 59 -8 76 -35 76 -27 0 -35 -17 -35 -75 0 -30 -5 -45 -16 -49 -28 -11 -34 4 -34 90 0 83 0 84 25 84 14 0 25 -5 25 -12z m406 0 c2 -3 2 -12 -2 -21 -4 -11 -14 -14 -40 -10 -47 8 -43 -10 6 -30 34 -13 40 -20 40 -46 0 -35 -22 -51 -72 -51 -42 0 -78 23 -62 40 8 8 19 8 38 0 17 -6 34 -7 43 -1 13 7 6 13 -30 29 -41 18 -47 25 -47 51 0 18 7 34 18 41 16 10 97 8 108 -2z"/> <path d="M856 648 c-13 -19 -14 -25 -2 -43 16 -25 42 -31 61 -15 19 16 19 45 -1 64 -21 22 -40 20 -58 -6z"/> <path d="M497 703 c-3 -10 -4 -40 -4 -68 2 -49 3 -50 34 -53 38 -4 83 33 83 68 0 51 -101 98 -113 53z"/> <path d="M1047 603 c-11 -10 -8 -20 8 -27 21 -8 45 3 45 20 0 14 -41 20 -53 7z"/> <path d="M1672 659 c-18 -7 -23 -15 -20 -35 7 -56 69 -57 76 -1 4 32 -23 49 -56 36z"/> <path d="M2137 603 c-11 -10 -8 -20 8 -27 21 -8 45 3 45 20 0 14 -41 20 -53 7z"/> <path d="M3134 599 c-3 -6 -2 -15 4 -21 11 -11 52 6 52 22 0 14 -47 13 -56 -1z"/> </g> </svg>