<?xml version="1.0" standalone="no"?>
<!DOCTYPE svg PUBLIC "-//W3C//DTD SVG 20010904//EN"
 "http://www.w3.org/TR/2001/REC-SVG-20010904/DTD/svg10.dtd">
<svg version="1.0" xmlns="http://www.w3.org/2000/svg"
 width="600.000000pt" height="69.000000pt" viewBox="0 0 600.000000 69.000000"
 preserveAspectRatio="xMidYMid meet">
<g transform="translate(0.000000,69.000000) scale(0.100000,-0.100000)"
fill="#351d10" stroke="none">
<path d="M558 666 c-15 -8 -41 -22 -57 -32 -26 -15 -38 -16 -113 -6 -102 15
-211 15 -258 2 -19 -6 -50 -24 -68 -40 l-32 -30 0 -215 c0 -233 5 -259 54
-304 21 -20 36 -24 78 -23 29 0 529 1 1110 1 l1057 -1 53 40 54 40 40 -25 c21
-13 50 -29 64 -34 16 -7 291 -12 730 -16 677 -5 723 -4 832 23 19 4 41 0 65
-12 68 -34 179 -17 255 38 15 10 24 7 63 -20 l46 -32 627 0 c345 0 644 4 665
9 49 12 100 47 124 86 14 24 19 55 21 160 5 170 -5 200 -73 235 l-51 27 -469
6 c-259 3 -497 2 -530 -3 -102 -13 -182 6 -298 71 -35 20 -55 22 -185 23 -131
1 -151 -1 -187 -20 -21 -11 -47 -34 -56 -50 -12 -22 -22 -29 -45 -27 -16 1
-67 3 -113 6 l-84 4 -34 41 c-54 65 -91 72 -385 72 -282 0 -300 -4 -343 -68
-21 -32 -35 -42 -65 -47 -49 -8 -104 2 -160 30 -75 38 -187 68 -230 62 -62 -8
-141 -50 -192 -102 l-47 -48 -53 23 c-42 18 -82 25 -196 31 -152 9 -187 20
-216 63 -60 93 -238 78 -292 -25 -13 -26 -14 -26 -171 -33 -87 -3 -176 -5
-198 -4 -72 4 -129 2 -201 -6 -94 -11 -137 3 -170 56 -32 51 -65 64 -198 77
-137 14 -135 14 -168 -3z m90 -128 c7 -7 12 -25 12 -40 0 -51 -69 -48 -85 3
-13 39 43 67 73 37z m2804 -14 c22 -47 -24 -83 -63 -48 -19 17 -26 54 -12 67
3 4 19 7 35 7 21 0 32 -7 40 -26z m-2628 -50 l-1 -62 78 5 c76 6 78 5 107 -24
56 -55 50 -181 -9 -226 -23 -16 -45 -20 -140 -21 -113 -1 -113 -1 -120 24 -4
14 -7 103 -8 198 l-1 173 48 -3 47 -3 -1 -61z m1024 54 c7 -7 12 -44 12 -95 0
-46 3 -83 7 -83 4 0 23 15 43 34 27 27 46 36 88 41 28 3 52 2 52 -2 0 -5 -20
-29 -45 -54 -24 -24 -45 -47 -45 -52 0 -4 18 -36 39 -70 51 -81 54 -98 17
-111 -27 -10 -31 -8 -78 44 -46 53 -49 54 -63 36 -8 -11 -15 -29 -15 -40 0
-35 -15 -49 -43 -42 -32 8 -34 18 -42 239 l-7 167 34 0 c19 0 39 -5 46 -12z
m1460 -183 c-3 -206 -5 -214 -50 -215 -34 0 -42 40 -46 228 l-4 182 51 0 52 0
-3 -195z m427 184 c13 -20 -5 -54 -37 -69 -18 -8 -33 -22 -33 -30 0 -16 9 -17
105 -9 l55 4 5 -87 c6 -94 14 -112 51 -106 33 4 59 60 59 126 0 45 3 54 22 61
12 4 30 6 40 3 16 -4 18 -18 18 -137 0 -152 -7 -167 -63 -147 -19 7 -56 9 -89
5 -94 -10 -116 16 -134 155 -7 56 -22 66 -56 35 -13 -12 -18 -32 -19 -77 -2
-91 -10 -120 -36 -124 -12 -2 -31 6 -42 17 -18 18 -21 34 -21 95 0 65 -3 78
-25 104 -14 17 -25 35 -25 41 0 6 11 16 25 21 15 6 25 17 25 29 0 36 24 74 55
87 36 16 111 18 120 3z m-947 -36 c30 -14 36 -23 34 -43 -5 -46 -24 -55 -78
-36 -55 18 -90 21 -99 6 -10 -17 11 -36 57 -50 96 -30 128 -63 128 -133 0 -69
-84 -103 -207 -86 -80 11 -103 23 -103 53 0 45 22 50 105 25 67 -20 78 -21 91
-7 8 8 12 21 9 30 -7 17 -47 38 -73 38 -25 0 -79 35 -98 65 -52 79 30 171 144
161 29 -3 69 -13 90 -23z m1687 17 c21 -8 26 -16 23 -38 -3 -26 -5 -27 -82
-32 -61 -4 -81 -9 -90 -23 -21 -33 4 -52 75 -55 87 -4 108 -23 69 -62 -15 -15
-33 -20 -72 -20 -29 0 -58 -4 -64 -8 -6 -4 -13 -33 -16 -64 -5 -64 -4 -63 -34
-72 -14 -4 -28 -1 -38 9 -13 14 -16 44 -16 189 0 95 3 176 7 179 10 11 209 8
238 -3z m-4049 -26 c127 -62 119 -281 -12 -324 -20 -7 -86 -13 -148 -14 l-111
-1 -3 184 -2 184 118 -5 c89 -4 129 -10 158 -24z m221 -62 c30 -19 27 -246 -3
-277 -17 -17 -39 -11 -50 13 -4 9 -9 70 -12 134 -4 117 -4 118 19 127 30 12
32 12 46 3z m645 -14 c39 -14 49 -51 46 -164 l-3 -99 -107 1 c-121 2 -152 13
-163 63 -13 58 40 101 124 101 40 0 61 13 41 25 -5 3 -38 9 -73 13 -52 6 -62
10 -65 28 -6 45 114 65 200 32z m993 12 c20 0 85 -72 94 -105 17 -65 -29 -143
-97 -166 -47 -15 -126 -5 -163 22 -78 55 -76 188 3 230 32 18 88 28 122 23 16
-2 34 -4 41 -4z m780 0 c22 -5 47 -18 56 -29 32 -39 35 -205 5 -246 -9 -13
-17 -14 -43 -4 -22 7 -47 8 -75 2 -80 -17 -138 16 -138 80 0 58 40 87 121 87
34 0 59 14 46 26 -3 3 -33 7 -67 9 -98 6 -110 48 -20 73 45 13 66 14 115 2z
m393 -116 c3 -138 -6 -174 -42 -174 -16 0 -26 7 -29 23 -10 38 -20 245 -13
262 4 12 16 15 43 13 l38 -3 3 -121z m1488 105 c9 -7 20 -6 38 6 19 13 29 14
45 5 36 -19 21 -80 -19 -80 -33 0 -51 -36 -59 -115 -7 -80 -21 -101 -52 -85
-26 15 -31 36 -37 168 l-5 124 38 -6 c21 -4 44 -11 51 -17z m209 7 c14 -10 25
-11 38 -4 30 16 103 11 137 -8 28 -17 31 -17 59 -1 16 9 49 17 73 17 79 -1 98
-33 98 -169 0 -99 0 -101 -25 -107 -41 -10 -55 10 -55 82 0 81 -12 114 -43
114 -39 0 -58 -32 -68 -111 -9 -71 -18 -89 -49 -89 -29 0 -40 23 -40 85 0 71
-17 109 -49 113 -40 6 -61 -24 -61 -89 0 -67 -12 -104 -36 -113 -37 -14 -49
17 -53 143 -2 100 0 120 14 134 20 21 35 21 60 3z m-3500 -2 c34 -14 50 -64
48 -163 0 -79 -4 -97 -19 -108 -24 -17 -30 -17 -52 5 -13 13 -21 41 -26 93 -7
78 -22 102 -61 97 -21 -3 -27 -22 -42 -133 l-8 -60 -35 0 c-33 0 -35 2 -42 40
-4 22 -7 84 -7 138 l-1 97 114 0 c63 0 122 -3 131 -6z m3116 -23 c16 -19 19
-39 19 -115 0 -140 6 -132 -111 -133 -89 -1 -103 2 -125 21 -34 29 -42 84 -17
115 15 18 33 25 86 30 104 11 107 29 5 40 -69 7 -88 15 -88 36 0 26 34 35 123
33 79 -3 91 -5 108 -27z m1047 23 c25 -7 29 -36 7 -54 -8 -6 -33 -10 -56 -8
-23 1 -44 -1 -46 -7 -1 -5 23 -23 55 -40 52 -27 57 -33 60 -67 4 -52 -12 -76
-59 -88 -75 -21 -171 13 -156 55 6 14 14 16 45 9 103 -21 116 2 27 49 -49 26
-61 37 -63 61 -5 44 6 76 31 86 25 10 121 13 155 4z"/>
<path d="M872 353 c-8 -3 -22 -19 -32 -36 -17 -28 -17 -33 -4 -59 22 -42 61
-54 93 -30 39 29 40 73 1 106 -33 27 -36 28 -58 19z"/>
<path d="M250 414 c-11 -28 -13 -136 -4 -171 13 -49 123 -30 164 27 38 54 21
107 -50 149 -50 30 -98 28 -110 -5z"/>
<path d="M1163 253 c-23 -9 -15 -42 12 -49 31 -8 53 0 62 22 10 26 -36 43 -74
27z"/>
<path d="M2190 337 c-36 -18 -39 -69 -6 -102 30 -30 36 -31 70 -4 34 27 36 81
4 103 -27 19 -35 19 -68 3z"/>
<path d="M2960 245 c-30 -36 41 -62 75 -28 16 16 16 17 -1 30 -24 17 -59 17
-74 -2z"/>
<path d="M4627 253 c-12 -3 -17 -12 -15 -26 2 -18 9 -22 32 -20 33 3 62 26 52
42 -7 11 -36 13 -69 4z"/>
</g>
</svg>
