<?xml version="1.0" standalone="no"?> <!DOCTYPE svg PUBLIC "-//W3C//DTD SVG 20010904//EN" "http://www.w3.org/TR/2001/REC-SVG-20010904/DTD/svg10.dtd"> <svg version="1.0" xmlns="http://www.w3.org/2000/svg" width="600.000000pt" height="408.000000pt" viewBox="0 0 600.000000 408.000000" preserveAspectRatio="xMidYMid meet"> <g transform="translate(0.000000,408.000000) scale(0.100000,-0.100000)" fill="#ffffff" stroke="none"> <path d="M3527 4019 c-164 -11 -254 -30 -342 -72 -83 -40 -181 -112 -231 -170 -94 -109 -73 -138 40 -53 79 60 191 119 244 131 56 12 38 -19 -50 -87 -118 -91 -117 -113 4 -59 35 16 93 37 127 46 86 22 95 12 56 -63 -106 -205 -451 -743 -538 -839 -66 -72 -173 -140 -276 -177 -78 -27 -98 -30 -211 -30 -111 0 -137 3 -235 32 -223 64 -539 69 -825 12 -130 -26 -208 -53 -323 -111 -55 -28 -103 -49 -109 -47 -5 2 1 16 13 32 22 28 22 29 4 75 -10 25 -26 80 -35 121 -24 100 -29 113 -45 100 -18 -15 -25 -1 -25 51 0 26 -5 51 -12 55 -7 5 -32 -14 -63 -48 -127 -136 -127 -236 -1 -428 20 -30 36 -65 36 -78 0 -13 -20 -83 -44 -155 -24 -73 -50 -166 -57 -207 -20 -114 -16 -342 10 -490 29 -171 28 -233 -8 -339 -51 -152 -63 -246 -81 -680 -6 -134 -13 -255 -16 -270 -17 -78 -26 -92 -72 -115 -76 -39 -136 -86 -124 -98 22 -22 5261 -40 5303 -18 10 6 19 15 19 21 0 21 -65 72 -128 100 -78 36 -127 37 -176 4 -60 -41 -93 -55 -129 -55 -47 0 -49 6 -15 41 17 16 28 33 24 36 -3 4 -12 1 -18 -5 -19 -19 -34 -14 -47 14 -11 24 -15 26 -58 19 -45 -7 -46 -6 -41 19 6 32 -4 33 -42 4 -27 -20 -33 -20 -69 -8 -47 15 -61 8 -61 -31 0 -32 -11 -37 -29 -15 -7 8 -31 24 -54 35 l-42 21 -17 -21 c-22 -26 -50 -21 -99 20 -58 49 -61 66 -66 554 l-5 439 55 106 c31 59 69 148 86 197 37 111 47 255 57 793 l7 362 -80 74 c-74 69 -127 146 -148 214 -12 39 11 23 39 -28 42 -76 97 -141 179 -209 68 -56 103 -104 121 -164 8 -25 35 -32 53 -15 24 25 32 85 22 183 -14 156 -70 287 -178 420 -68 83 -75 95 -62 95 35 0 148 -158 226 -318 l50 -103 146 3 c161 3 173 7 206 72 27 53 -12 204 -85 325 -42 69 -134 149 -267 232 l-79 49 -116 -1 c-63 -1 -144 -5 -180 -9 l-65 -7 50 -2 c98 -5 127 -26 80 -57 -20 -13 -46 -17 -99 -16 -39 1 -77 -2 -84 -7 -8 -4 -17 -37 -22 -73 -9 -78 -28 -122 -122 -287 -209 -365 -399 -620 -515 -688 -70 -41 -53 -58 23 -24 55 25 98 64 221 203 89 100 107 117 120 106 25 -20 35 -58 43 -164 9 -118 35 -178 106 -244 42 -39 52 -43 126 -55 45 -7 83 -47 174 -184 l66 -99 -12 -98 c-33 -273 -100 -423 -243 -535 -87 -69 -101 -44 -36 66 22 39 48 83 56 98 l15 29 -34 -7 c-53 -12 -88 -34 -141 -89 -60 -62 -153 -201 -173 -259 -8 -23 -19 -107 -24 -187 -5 -80 -16 -176 -25 -215 -11 -45 -14 -89 -11 -125 13 -120 25 -341 20 -355 -16 -41 -89 5 -98 63 -4 20 -11 131 -16 247 -5 116 -14 235 -20 265 -6 30 -14 125 -19 210 -6 108 -13 165 -24 186 -21 41 -88 100 -143 127 -39 18 -46 19 -54 7 -5 -8 -7 -24 -5 -35 2 -11 6 -46 9 -77 l6 -58 -79 0 c-63 0 -80 -3 -85 -16 -9 -22 -7 -137 2 -151 6 -9 29 -7 97 8 146 31 183 47 201 82 23 44 31 23 48 -130 8 -70 22 -171 30 -223 10 -61 17 -175 18 -316 l3 -221 -27 20 c-22 17 -30 18 -43 7 -8 -7 -15 -23 -15 -37 l0 -24 -32 22 c-29 21 -31 22 -24 3 4 -10 10 -32 12 -49 l6 -30 -24 25 c-13 14 -31 37 -40 50 -16 25 -16 25 -8 -14 11 -51 4 -66 -32 -66 -29 0 -30 2 -24 30 5 27 3 30 -19 30 -14 0 -29 8 -35 20 -15 28 -30 25 -30 -7 -1 -26 -4 -24 -60 37 -34 38 -64 82 -71 105 -8 28 -13 196 -16 583 l-5 542 61 102 c68 113 104 213 126 351 24 150 38 507 32 853 l-5 320 -88 90 c-94 94 -168 212 -162 256 2 19 9 12 37 -37 46 -82 54 -92 201 -241 109 -111 130 -137 143 -180 11 -37 19 -50 36 -52 17 -3 26 6 43 45 18 39 22 65 21 138 -3 181 -96 398 -245 568 -40 45 -46 68 -14 50 25 -14 124 -142 170 -221 24 -40 61 -111 82 -158 l39 -85 168 3 168 3 46 48 c35 38 44 53 38 70 -3 12 -11 40 -17 62 -14 50 -25 64 -63 81 -30 14 -30 14 13 8 30 -5 42 -3 42 6 0 28 -94 189 -141 242 -65 74 -286 227 -354 245 -54 14 -170 15 -368 2z m138 -49 c3 -5 -9 -19 -27 -30 -34 -22 -32 -22 -188 -2 -30 4 -61 11 -68 15 -7 5 -14 2 -18 -7 -3 -9 -18 -16 -33 -16 -14 0 -69 -18 -121 -39 -52 -21 -97 -36 -100 -34 -8 7 51 51 100 74 24 12 71 27 105 34 71 16 341 20 350 5z m348 -67 c70 -36 110 -65 167 -123 76 -75 140 -162 140 -187 0 -8 -16 -23 -35 -35 -45 -26 -42 -44 13 -81 48 -32 52 -43 18 -58 -18 -9 -33 -7 -69 10 -25 12 -57 21 -71 21 -18 0 -26 5 -26 18 -1 47 -28 97 -64 115 -20 10 -36 25 -36 33 0 8 -16 22 -35 30 -19 8 -35 17 -35 20 0 8 78 -1 103 -11 33 -14 17 15 -44 81 -44 47 -59 71 -56 85 4 13 -7 35 -34 65 -36 42 -48 64 -33 64 3 0 47 -21 97 -47z m-167 -24 c19 -11 34 -25 34 -30 0 -21 -120 26 -128 50 -6 19 50 8 94 -20z m-83 -53 c69 -14 78 -30 21 -34 -33 -2 -48 2 -70 22 -33 29 -31 29 49 12z m115 -83 c5 -18 -47 -35 -85 -28 -45 8 -50 22 -11 34 43 13 90 9 96 -6z m-373 -93 c11 -58 45 -160 87 -258 22 -52 38 -96 35 -98 -7 -8 -51 54 -79 111 -33 65 -56 138 -68 207 -15 94 7 128 25 38z m167 3 c78 -83 178 -240 223 -352 39 -95 26 -104 -24 -15 -93 167 -151 261 -200 324 -28 36 -51 68 -51 73 0 16 17 5 52 -30z m324 -170 c8 -32 14 -69 13 -83 l0 -25 -14 25 c-20 35 -38 117 -31 137 9 23 17 11 32 -54z m1013 -55 c114 -64 206 -148 264 -240 24 -39 21 -55 -13 -73 -16 -9 -30 -19 -30 -23 0 -17 33 -54 56 -62 46 -18 28 -33 -30 -26 -77 9 -106 21 -106 46 0 37 -28 77 -73 103 -24 14 -50 33 -57 42 -12 15 -8 15 41 9 l54 -7 -25 29 c-13 16 -40 46 -60 67 -26 28 -34 45 -32 67 3 22 -3 33 -27 51 -32 24 -47 49 -29 49 6 0 36 -14 67 -32z m-945 -44 c9 -20 15 -38 13 -41 -7 -6 -47 48 -47 63 0 25 16 14 34 -22z m811 19 c19 -9 35 -20 35 -25 0 -13 -49 -9 -80 7 -62 32 -19 49 45 18z m-542 -32 c21 -3 39 -10 40 -16 3 -19 -58 -16 -106 5 -72 32 -67 33 66 11z m526 -27 c2 -2 1 -10 -2 -19 -9 -23 -53 -18 -84 10 l-28 25 55 -6 c30 -4 57 -8 59 -10z m-546 -20 c9 -3 17 -10 17 -16 0 -7 -19 -9 -55 -5 -64 6 -84 15 -64 28 13 9 59 5 102 -7z m583 -59 c-11 -8 -29 -15 -41 -15 -12 0 -30 7 -41 15 -17 13 -14 14 41 14 55 0 58 -1 41 -14z m-302 -103 c10 -41 33 -112 52 -159 35 -85 41 -113 26 -113 -12 0 -77 142 -96 209 -17 57 -22 178 -7 151 4 -8 16 -48 25 -88z m221 -72 c56 -80 95 -152 114 -213 24 -71 5 -60 -39 24 -47 91 -100 173 -166 258 -24 30 -40 59 -37 64 8 13 68 -49 128 -133z m204 -85 l0 -30 -14 25 c-8 14 -14 43 -14 65 l1 40 13 -35 c7 -19 14 -48 14 -65z m-1905 3 c11 -15 16 -46 16 -93 1 -134 36 -245 105 -331 37 -45 86 -70 157 -79 65 -9 90 -32 193 -185 l88 -132 -7 -96 c-14 -208 -81 -412 -175 -529 -50 -63 -160 -148 -173 -135 -10 10 16 66 76 166 37 61 46 96 24 96 -26 -1 -126 -47 -163 -76 -43 -33 -216 -288 -233 -344 -6 -19 -12 -112 -15 -205 -4 -149 -8 -178 -27 -223 -22 -51 -22 -56 -11 -215 16 -228 20 -270 27 -318 l7 -42 -53 5 c-29 3 -56 11 -61 19 -5 8 -9 102 -9 209 -1 203 -8 286 -34 406 -9 39 -22 154 -31 255 -17 207 -25 246 -61 288 -26 32 -154 101 -185 101 -29 0 -32 -17 -13 -96 16 -68 16 -76 2 -90 -34 -35 -343 -26 -591 16 -94 16 -125 27 -241 84 -148 74 -304 174 -384 247 -72 65 -86 65 -80 -4 2 -29 15 -79 28 -110 l24 -58 -176 -172 c-184 -180 -213 -217 -277 -344 -91 -182 -126 -324 -141 -578 -5 -93 -13 -180 -16 -192 -7 -27 -34 -37 -74 -28 -40 9 -43 33 -31 250 6 99 13 261 16 360 8 247 9 250 67 351 l51 89 -23 241 c-30 316 -26 519 13 639 83 256 288 410 624 470 216 38 465 29 753 -27 130 -25 170 -29 250 -25 241 14 422 104 577 287 110 129 148 170 160 170 7 0 19 -10 27 -22z m2209 -70 c30 -16 12 -20 -32 -8 -23 6 -41 15 -41 21 0 10 42 3 73 -13z m-4584 -130 c7 -40 24 -110 38 -156 29 -94 25 -144 -14 -150 -39 -6 -112 134 -113 216 0 42 50 162 69 162 4 0 13 -33 20 -72z m2491 -1362 l-51 -94 51 -224 c27 -122 59 -254 71 -293 19 -61 22 -108 29 -375 5 -168 10 -314 12 -325 2 -12 -4 -21 -15 -23 -40 -8 -61 43 -36 90 14 27 1 38 -17 14 -14 -19 -14 -19 -44 2 -36 27 -42 27 -65 2 -24 -26 -43 -25 -54 3 -5 12 -25 46 -44 74 -65 97 -71 201 -22 388 26 99 26 103 20 326 l-7 226 58 79 c33 44 81 117 109 162 27 46 51 79 53 73 2 -5 -20 -52 -48 -105z m-1875 2 c-15 -23 -103 -116 -195 -207 -98 -98 -172 -180 -180 -200 -13 -31 -11 -37 28 -115 23 -44 49 -112 58 -151 34 -152 65 -345 71 -447 5 -95 4 -110 -13 -135 l-19 -28 -5 40 c-5 39 -6 40 -40 37 -71 -6 -111 -4 -124 8 -18 14 -30 -3 -21 -30 6 -18 3 -20 -22 -14 -15 3 -40 15 -55 25 -26 18 -28 18 -28 2 0 -16 -1 -16 -17 0 -16 15 -18 37 -17 160 1 170 11 230 71 407 85 254 86 256 320 491 114 115 209 207 211 204 3 -3 -8 -23 -23 -47z m1364 -34 c28 -36 38 -79 51 -214 6 -63 24 -209 41 -324 27 -186 30 -231 27 -395 -2 -142 0 -194 11 -219 17 -40 10 -49 -25 -33 l-26 11 22 -35 c27 -43 24 -89 -6 -93 -29 -4 -54 23 -54 58 0 16 -11 45 -24 64 -29 43 -47 131 -55 266 -7 116 0 108 -73 93 -33 -6 -36 6 -8 29 11 10 22 30 26 45 19 79 64 131 104 118 16 -5 20 -2 20 15 0 13 -8 24 -19 27 -16 4 -18 12 -13 68 5 69 -4 183 -18 204 -7 12 -19 12 -71 2 -93 -19 -150 -52 -202 -117 -75 -95 -75 -95 -35 -156 43 -66 51 -89 82 -263 31 -168 33 -254 7 -311 -26 -58 -38 -62 -71 -23 l-29 34 -1 -37 c0 -46 -17 -49 -56 -13 -35 32 -44 32 -44 -4 0 -58 -40 -47 -67 18 -20 47 -19 195 2 307 35 193 98 354 178 459 25 33 42 61 37 63 -5 2 -26 -4 -46 -14 -107 -51 -217 -357 -239 -669 -9 -121 -21 -165 -45 -165 -28 0 -63 64 -63 119 -2 255 19 612 38 664 9 22 -17 23 -35 2 -19 -22 -30 -152 -39 -450 -5 -148 -12 -278 -16 -287 -8 -19 -40 -24 -50 -8 -7 12 -26 14 -24 3 3 -21 -3 -33 -21 -43 -18 -10 -22 -7 -31 19 -6 17 -13 31 -15 31 -2 0 -23 -14 -46 -30 -22 -17 -47 -30 -55 -30 -16 0 -17 27 0 33 9 3 9 8 1 16 -9 10 -16 6 -32 -13 -23 -31 -38 -32 -65 -9 -20 17 -20 17 -12 -2 4 -11 10 -33 12 -50 3 -25 2 -27 -6 -9 -11 26 -77 84 -96 84 -21 0 -29 -39 -11 -58 10 -11 12 -22 6 -32 -6 -10 -14 -5 -30 24 -13 20 -39 46 -60 56 -76 39 -109 134 -117 332 -3 76 -7 138 -9 138 -1 0 -19 -9 -38 -21 -22 -13 -43 -18 -56 -14 -23 7 -27 25 -5 25 16 0 30 27 60 112 19 55 58 91 89 82 12 -3 45 -30 73 -60 29 -30 57 -54 62 -54 11 0 21 50 21 105 0 98 1 99 113 133 124 38 181 48 362 62 309 24 681 94 715 135 30 36 8 140 -41 204 -11 13 -19 28 -19 33 0 14 36 -9 59 -38z m736 -34 c-23 -25 -139 -84 -156 -78 -7 2 18 23 55 47 98 61 140 75 101 31z m-1858 -49 c159 -54 219 -68 343 -81 155 -16 177 -21 155 -33 -41 -22 -342 12 -471 54 -66 21 -154 72 -154 89 0 14 -5 15 127 -29z m2746 -63 c-41 -79 -37 -156 20 -378 55 -216 70 -328 66 -501 l-4 -135 -40 -46 c-43 -49 -56 -49 -30 1 16 32 7 42 -15 16 -18 -21 -39 -19 -61 8 l-18 22 -1 -22 c0 -32 -13 -29 -53 16 -25 28 -38 53 -43 86 -9 66 1 216 17 246 10 17 15 91 19 270 l5 245 27 32 c14 17 50 70 78 118 57 93 78 108 33 22z m-449 -29 c25 -30 37 -77 16 -64 -11 7 -60 80 -60 90 0 14 21 2 44 -26z m-2356 -111 c-3 -46 -11 -66 -35 -95 -26 -33 -121 -92 -147 -93 -5 0 12 23 38 50 55 59 96 140 96 191 0 47 10 56 33 27 15 -18 18 -35 15 -80z m3007 82 c-8 -13 -125 -73 -131 -67 -7 6 18 24 77 57 53 29 67 31 54 10z m-2866 -22 c8 -23 -12 -103 -30 -114 -10 -6 -13 95 -3 120 9 23 23 20 33 -6z m1774 -171 c25 -49 26 -226 2 -316 -15 -61 -15 -64 5 -97 16 -28 20 -52 20 -117 0 -46 7 -110 16 -142 28 -101 28 -100 -41 -100 l-60 0 -7 110 c-4 61 -12 187 -17 280 -7 100 -19 204 -31 253 -25 102 -25 134 -2 154 42 37 90 27 115 -25z m-2376 -18 c14 -22 46 -52 71 -66 50 -30 72 -70 72 -134 0 -35 -2 -40 -14 -29 -8 6 -22 33 -30 58 -11 32 -25 52 -45 63 -37 22 -79 78 -87 117 -9 43 0 40 33 -9z m3459 -100 c17 -19 19 -34 15 -147 -6 -191 -5 -217 11 -348 9 -79 20 -131 32 -149 20 -31 14 -45 -14 -27 -11 7 -35 12 -54 12 -32 0 -36 3 -45 38 -5 20 -12 118 -15 217 -4 110 -12 207 -22 250 -29 122 -29 140 -3 159 32 22 72 20 95 -5z m-2061 -41 c23 -24 55 -52 70 -63 22 -17 29 -31 33 -73 6 -64 -11 -70 -34 -12 -9 22 -28 50 -43 63 -32 27 -66 74 -75 105 -11 32 1 27 49 -20z m-1150 -532 c34 -68 32 -79 -16 -94 -35 -11 -45 -11 -64 2 -39 26 -68 101 -73 190 l-4 81 66 -65 c37 -36 78 -87 91 -114z m1321 16 c18 -10 44 -83 44 -126 0 -10 -53 -15 -92 -7 -20 3 -51 91 -56 156 l-4 70 43 -41 c24 -23 53 -46 65 -52z m578 -138 c20 -20 20 -43 0 -72 -17 -25 -62 -30 -70 -7 -8 21 3 60 22 79 19 20 29 20 48 0z"/> <path d="M3135 1187 c-10 -23 4 -97 15 -77 4 8 5 33 0 55 -5 30 -9 36 -15 22z"/> <path d="M3134 1025 c-11 -63 27 -112 46 -59 9 23 -10 86 -27 91 -7 3 -15 -11 -19 -32z"/> <path d="M126 75 c-43 -15 -63 -31 -53 -42 12 -11 119 -16 156 -6 42 11 63 39 41 53 -22 14 -99 11 -144 -5z"/> <path d="M5723 80 c-32 -13 -28 -36 8 -49 45 -16 151 -14 174 3 18 13 17 14 -7 30 -30 20 -143 30 -175 16z"/> </g> </svg>